<svg xmlns="http://www.w3.org/2000/svg" width="96" height="96" viewBox="0 0 96 96" fill="none">
  <circle cx="48" cy="60" r="18" fill="#10B981"/>
  <circle cx="42" cy="56" r="3" fill="#065F46"/>
  <circle cx="54" cy="56" r="3" fill="#065F46"/>
  <path d="M40 64c4 5 12 5 16 0" stroke="#065F46" stroke-width="3" stroke-linecap="round"/>
  <path d="M48 38c-2 -12 10 -18 22 -16c-2 10 -11 15 -22 16Z" fill="#34D399"/>
  <path d="M48 40c-2 -9 -13 -13 -22 -10c3 9 12 12 22 10Z" fill="#34D399"/>
  <g stroke="#F59E0B" stroke-width="3" stroke-linecap="round">
    <path d="M25 47l6 -3"/>
    <path d="M71 47l-6 -3"/>
    <path d="M26 73l5 2"/>
    <path d="M70 73l-5 2"/>
  </g>
</svg>
